<svg width="660" height="396" viewBox="0 0 660 396" xmlns="http://www.w3.org/2000/svg" aria-label="Four nodes — two facts, a wiki article, and a derived thought — connect symmetrically to the central keyword intrinsic value"><title>BrainDB — one keyword, one graph</title><rect x="0" y="0" width="660" height="396" rx="12" fill="#0E0F15"/>

        <!-- Embedding rings around the central keyword -->
        <circle cx="330" cy="170" r="68" fill="none" stroke="#4DA3FF" stroke-opacity="0.16" stroke-width="1" stroke-dasharray="3 5"/>
        <circle cx="330" cy="170" r="54" fill="none" stroke="#4DA3FF" stroke-opacity="0.26" stroke-width="1" stroke-dasharray="2 4"/>

        <!-- Four converging edges: corners -> keyword (X pattern) -->
        <line x1="210" y1="100" x2="295" y2="150" stroke="#B5B1A8" stroke-opacity="0.5" stroke-width="1.2"/>
        <line x1="450" y1="100" x2="365" y2="150" stroke="#B5B1A8" stroke-opacity="0.5" stroke-width="1.2"/>
        <line x1="210" y1="240" x2="295" y2="190" stroke="#B5B1A8" stroke-opacity="0.5" stroke-width="1.2"/>
        <line x1="450" y1="240" x2="365" y2="190" stroke="#B5B1A8" stroke-opacity="0.5" stroke-width="1.2"/>

        <!-- Fact 1 (top-left) -->
        <rect x="10" y="10" width="200" height="90" rx="6" fill="#13141C" stroke="#262938" stroke-width="1"/>
        <text x="22" y="30" font-family="JetBrains Mono, monospace" font-size="9" letter-spacing="2" fill="#4DA3FF" font-weight="700">FACT</text>
        <text x="22" y="53" font-family="Space Grotesk, sans-serif" font-size="11.5" fill="#E8E4DD">A wide moat protects</text>
        <text x="22" y="71" font-family="Space Grotesk, sans-serif" font-size="11.5" fill="#E8E4DD">long-term earnings.</text>

        <!-- Wiki (top-right, tall page) -->
        <rect x="450" y="10" width="200" height="180" rx="3" fill="#13141C" stroke="#262938" stroke-width="1"/>
        <rect x="450" y="10" width="200" height="3" fill="#4DA3FF"/>
        <text x="462" y="32" font-family="JetBrains Mono, monospace" font-size="8" letter-spacing="2" fill="#4DA3FF" font-weight="700">WIKI</text>
        <text x="462" y="52" font-family="Space Grotesk, sans-serif" font-size="13" fill="#E8E4DD" font-weight="700">Intrinsic Value</text>
        <line x1="462" y1="62" x2="638" y2="62" stroke="#262938" stroke-width="1"/>
        <line x1="462" y1="74"  x2="638" y2="74"  stroke="#6F6D7A" stroke-opacity="0.55" stroke-width="2"/>
        <line x1="462" y1="84"  x2="618" y2="84"  stroke="#6F6D7A" stroke-opacity="0.55" stroke-width="2"/>
        <line x1="462" y1="94"  x2="628" y2="94"  stroke="#6F6D7A" stroke-opacity="0.55" stroke-width="2"/>
        <line x1="462" y1="104" x2="588" y2="104" stroke="#6F6D7A" stroke-opacity="0.55" stroke-width="2"/>
        <rect x="462" y="116" width="28" height="2" fill="#4DA3FF"/>
        <line x1="462" y1="128" x2="638" y2="128" stroke="#6F6D7A" stroke-opacity="0.55" stroke-width="2"/>
        <line x1="462" y1="138" x2="608" y2="138" stroke="#6F6D7A" stroke-opacity="0.55" stroke-width="2"/>
        <line x1="462" y1="148" x2="624" y2="148" stroke="#6F6D7A" stroke-opacity="0.55" stroke-width="2"/>
        <rect x="462" y="160" width="28" height="2" fill="#4DA3FF"/>
        <line x1="462" y1="172" x2="618" y2="172" stroke="#6F6D7A" stroke-opacity="0.55" stroke-width="2"/>
        <line x1="462" y1="182" x2="570" y2="182" stroke="#6F6D7A" stroke-opacity="0.55" stroke-width="2"/>

        <!-- Fact 2 (bottom-left) -->
        <rect x="10" y="240" width="200" height="90" rx="6" fill="#13141C" stroke="#262938" stroke-width="1"/>
        <text x="22" y="260" font-family="JetBrains Mono, monospace" font-size="9" letter-spacing="2" fill="#4DA3FF" font-weight="700">FACT</text>
        <text x="22" y="283" font-family="Space Grotesk, sans-serif" font-size="11.5" fill="#E8E4DD">Owner earnings reveal</text>
        <text x="22" y="301" font-family="Space Grotesk, sans-serif" font-size="11.5" fill="#E8E4DD">real cash flow.</text>

        <!-- Derived thought (bottom-right, pill) -->
        <rect x="450" y="240" width="200" height="90" rx="18" fill="#13141C" stroke="#262938" stroke-width="1"/>
        <text x="462" y="260" font-family="JetBrains Mono, monospace" font-size="9" letter-spacing="2" fill="#4DA3FF" font-weight="700">&#8756; THOUGHT · DERIVED</text>
        <text x="462" y="283" font-family="Space Grotesk, sans-serif" font-size="11.5" fill="#E8E4DD">A moated, cash-rich</text>
        <text x="462" y="301" font-family="Space Grotesk, sans-serif" font-size="11.5" fill="#E8E4DD">company is a compounder.</text>

        <!-- Central keyword -->
        <circle cx="330" cy="170" r="40" fill="#0E0F15" stroke="#4DA3FF" stroke-width="2"/>
        <text x="330" y="160" text-anchor="middle" font-family="JetBrains Mono, monospace" font-size="9" letter-spacing="2" fill="#4DA3FF" font-weight="700">KEYWORD</text>
        <text x="330" y="178" text-anchor="middle" font-family="Space Grotesk, sans-serif" font-size="11" fill="#E8E4DD" font-weight="500">intrinsic</text>
        <text x="330" y="192" text-anchor="middle" font-family="Space Grotesk, sans-serif" font-size="11" fill="#E8E4DD" font-weight="500">value</text>
      <g class="brand-mark" transform="translate(464.5 346) scale(0.2667) translate(155 -36)"><rect x="-155" y="36" width="688" height="150" rx="24" fill="#000000"/><path fill="#E8E4DD" fill-rule="evenodd" d="M-83.2 62.1A13 13 0 0 0 -104 69A17 17 0 0 0 -123 89A13.5 13.5 0 0 0 -128 111A13.5 13.5 0 0 0 -123 133A17 17 0 0 0 -104 153A13 13 0 0 0 -83.2 159.9ZM-98.4 90A5.6 5.6 0 1 0 -109.6 90A5.6 5.6 0 1 0 -98.4 90ZM-107.8 116A5.2 5.2 0 1 0 -118.2 116A5.2 5.2 0 1 0 -107.8 116ZM-87.4 131A5.6 5.6 0 1 0 -98.6 131A5.6 5.6 0 1 0 -87.4 131ZM-108.15 96.18L-112.57 108.95L-108.98 110.2L-104.56 97.43ZM-108.7 121.6L-99.9 128.2L-97.62 125.16L-106.42 118.56ZM57.40 160L6.44 160L6.44 143.76L19.32 143.76L19.32 78.24L6.44 78.24L6.44 62.00L56.84 62.00Q65.80 62.00 72.45 65.01Q79.10 68.02 82.81 73.55Q86.52 79.08 86.52 86.78L86.52 86.78L86.52 88.18Q86.52 94.90 84.00 99.17Q81.48 103.44 78.05 105.75Q74.62 108.06 71.54 109.04L71.54 109.04L71.54 111.56Q74.62 112.40 78.26 114.71Q81.90 117.02 84.49 121.36Q87.08 125.70 87.08 132.70L87.08 132.70L87.08 134.10Q87.08 142.22 83.30 148.03Q79.52 153.84 72.87 156.92Q66.22 160 57.40 160L57.40 160ZM37.80 119.12L37.80 143.20L55.16 143.20Q61.18 143.20 64.89 140.26Q68.60 137.32 68.60 131.86L68.60 131.86L68.60 130.46Q68.60 125 64.96 122.06Q61.32 119.12 55.16 119.12L55.16 119.12L37.80 119.12ZM37.80 78.80L37.80 102.32L54.88 102.32Q60.62 102.32 64.33 99.38Q68.04 96.44 68.04 91.26L68.04 91.26L68.04 89.86Q68.04 84.54 64.40 81.67Q60.76 78.80 54.88 78.80L54.88 78.80L37.80 78.80ZM116.90 160L99.26 160L99.26 90.56L116.62 90.56L116.62 98.40L119.14 98.40Q120.68 94.20 124.25 92.24Q127.82 90.28 132.58 90.28L132.58 90.28L140.98 90.28L140.98 105.96L132.30 105.96Q125.58 105.96 121.24 109.53Q116.90 113.10 116.90 120.52L116.90 120.52L116.90 160ZM171.08 161.96L171.08 161.96Q163.66 161.96 157.78 159.37Q151.90 156.78 148.47 151.81Q145.04 146.84 145.04 139.70L145.04 139.70Q145.04 132.56 148.47 127.73Q151.90 122.90 157.99 120.45Q164.08 118 171.92 118L171.92 118L190.96 118L190.96 114.08Q190.96 109.18 187.88 106.03Q184.80 102.88 178.08 102.88L178.08 102.88Q171.50 102.88 168.28 105.89Q165.06 108.90 164.08 113.66L164.08 113.66L147.84 108.20Q149.52 102.88 153.23 98.47Q156.94 94.06 163.17 91.33Q169.40 88.60 178.36 88.60L178.36 88.60Q192.08 88.60 200.06 95.46Q208.04 102.32 208.04 115.34L208.04 115.34L208.04 141.24Q208.04 145.44 211.96 145.44L211.96 145.44L217.56 145.44L217.56 160L205.80 160Q200.62 160 197.26 157.48Q193.90 154.96 193.90 150.76L193.90 150.76L193.90 150.62L191.24 150.62Q190.68 152.30 188.72 155.03Q186.76 157.76 182.56 159.86Q178.36 161.96 171.08 161.96ZM174.16 147.68L174.16 147.68Q181.58 147.68 186.27 143.55Q190.96 139.42 190.96 132.56L190.96 132.56L190.96 131.16L173.18 131.16Q168.28 131.16 165.48 133.26Q162.68 135.36 162.68 139.14L162.68 139.14Q162.68 142.92 165.62 145.30Q168.56 147.68 174.16 147.68ZM244.58 160L226.94 160L226.94 90.56L244.58 90.56L244.58 160ZM235.76 82.44L235.76 82.44Q231.00 82.44 227.71 79.36Q224.42 76.28 224.42 71.24L224.42 71.24Q224.42 66.20 227.71 63.12Q231.00 60.04 235.76 60.04L235.76 60.04Q240.66 60.04 243.88 63.12Q247.10 66.20 247.10 71.24L247.10 71.24Q247.10 76.28 243.88 79.36Q240.66 82.44 235.76 82.44ZM278.32 160L260.68 160L260.68 90.56L278.04 90.56L278.04 99.66L280.56 99.66Q282.24 96.02 286.86 92.73Q291.48 89.44 300.86 89.44L300.86 89.44Q308.98 89.44 315.07 93.15Q321.16 96.86 324.52 103.37Q327.88 109.88 327.88 118.56L327.88 118.56L327.88 160L310.24 160L310.24 119.96Q310.24 112.12 306.39 108.20Q302.54 104.28 295.40 104.28L295.40 104.28Q287.28 104.28 282.80 109.67Q278.32 115.06 278.32 124.72L278.32 124.72L278.32 160Z"/><path fill="#4DA3FF" fill-rule="evenodd" d="M-76.8 62.1A49 49 0 0 1 -76.8 159.9ZM-76.8 97.5Q-55 109.5 -32.9 97.5L-35.5 90.5Q-55 102.5 -76.8 90.5ZM-76.8 131.5Q-55 143.5 -35.5 131.5L-32.9 124.5Q-55 136.5 -76.8 124.5Z"/><path fill="#4DA3FF" fill-rule="evenodd" d="M380.38 160L340.06 160L340.06 143.76L352.94 143.76L352.94 78.24L340.06 78.24L340.06 62.00L380.38 62.00Q400.12 62.00 410.41 72.01Q420.70 82.02 420.70 101.76L420.70 101.76L420.70 120.24Q420.70 139.98 410.41 149.99Q400.12 160 380.38 160L380.38 160ZM371.42 78.80L371.42 143.20L380.66 143.20Q391.86 143.20 397.04 137.32Q402.22 131.44 402.22 120.80L402.22 120.80L402.22 101.20Q402.22 90.42 397.04 84.61Q391.86 78.80 380.66 78.80L380.66 78.80L371.42 78.80ZM477.68 160L426.72 160L426.72 143.76L439.60 143.76L439.60 78.24L426.72 78.24L426.72 62.00L477.12 62.00Q486.08 62.00 492.73 65.01Q499.38 68.02 503.09 73.55Q506.80 79.08 506.80 86.78L506.80 86.78L506.80 88.18Q506.80 94.90 504.28 99.17Q501.76 103.44 498.33 105.75Q494.90 108.06 491.82 109.04L491.82 109.04L491.82 111.56Q494.90 112.40 498.54 114.71Q502.18 117.02 504.77 121.36Q507.36 125.70 507.36 132.70L507.36 132.70L507.36 134.10Q507.36 142.22 503.58 148.03Q499.80 153.84 493.15 156.92Q486.50 160 477.68 160L477.68 160ZM458.08 119.12L458.08 143.20L475.44 143.20Q481.46 143.20 485.17 140.26Q488.88 137.32 488.88 131.86L488.88 131.86L488.88 130.46Q488.88 125 485.24 122.06Q481.60 119.12 475.44 119.12L475.44 119.12L458.08 119.12ZM458.08 78.80L458.08 102.32L475.16 102.32Q480.90 102.32 484.61 99.38Q488.32 96.44 488.32 91.26L488.32 91.26L488.32 89.86Q488.32 84.54 484.68 81.67Q481.04 78.80 475.16 78.80L475.16 78.80L458.08 78.80Z"/></g></svg>
