<svg xmlns="http://www.w3.org/2000/svg" viewBox="-151 40 142 142" width="142" height="142" role="img" aria-label="BrainDB"><title>BrainDB</title><rect x="-151" y="40" width="142" height="142" rx="30" fill="#000000"/><path fill="#E8E4DD" fill-rule="evenodd" d="M-83.2 62.1A13 13 0 0 0 -104 69A17 17 0 0 0 -123 89A13.5 13.5 0 0 0 -128 111A13.5 13.5 0 0 0 -123 133A17 17 0 0 0 -104 153A13 13 0 0 0 -83.2 159.9ZM-98.4 90A5.6 5.6 0 1 0 -109.6 90A5.6 5.6 0 1 0 -98.4 90ZM-107.8 116A5.2 5.2 0 1 0 -118.2 116A5.2 5.2 0 1 0 -107.8 116ZM-87.4 131A5.6 5.6 0 1 0 -98.6 131A5.6 5.6 0 1 0 -87.4 131ZM-108.15 96.18L-112.57 108.95L-108.98 110.2L-104.56 97.43ZM-108.7 121.6L-99.9 128.2L-97.62 125.16L-106.42 118.56Z"/><path fill="#4DA3FF" fill-rule="evenodd" d="M-76.8 62.1A49 49 0 0 1 -76.8 159.9ZM-76.8 97.5Q-55 109.5 -32.9 97.5L-35.5 90.5Q-55 102.5 -76.8 90.5ZM-76.8 131.5Q-55 143.5 -35.5 131.5L-32.9 124.5Q-55 136.5 -76.8 124.5Z"/></svg>
